<svg width="51" height="51" viewBox="0 0 51 51" fill="none" xmlns="http://www.w3.org/2000/svg">
<circle cx="25.5" cy="25.5" r="25.5" fill="#40B381"/>
<path d="M26 30.3333C26.6365 30.3333 27.247 30.0787 27.6971 29.6255C28.1471 29.1723 28.4 28.5576 28.4 27.9167V13.4167C28.4 12.7757 28.1471 12.161 27.6971 11.7078C27.247 11.2546 26.6365 11 26 11C25.3635 11 24.753 11.2546 24.3029 11.7078C23.8529 12.161 23.6 12.7757 23.6 13.4167V27.9167C23.6 28.5576 23.8529 29.1723 24.3029 29.6255C24.753 30.0787 25.3635 30.3333 26 30.3333ZM26 40C26.5933 40 27.1734 39.8228 27.6667 39.4909C28.1601 39.159 28.5446 38.6872 28.7716 38.1352C28.9987 37.5832 29.0581 36.9758 28.9424 36.3898C28.8266 35.8039 28.5409 35.2656 28.1213 34.8431C27.7018 34.4206 27.1672 34.1329 26.5853 34.0164C26.0033 33.8998 25.4001 33.9596 24.8519 34.1883C24.3038 34.4169 23.8352 34.8041 23.5056 35.3009C23.1759 35.7977 23 36.3817 23 36.9792C23 37.7803 23.3161 38.5487 23.8787 39.1152C24.4413 39.6817 25.2044 40 26 40Z" stroke="white" stroke-width="3" fill="white"/>
</svg>
