<svg width="53" height="53" viewBox="0 0 53 53" fill="none" xmlns="http://www.w3.org/2000/svg">
<path d="M28.1563 6.625C27.717 6.625 27.2957 6.7995 26.9851 7.1101C26.6745 7.42071 26.5 7.84199 26.5 8.28125V40.7206L19.3914 33.6119C19.079 33.3102 18.6607 33.1433 18.2264 33.1471C17.7921 33.1508 17.3767 33.325 17.0696 33.6321C16.7626 33.9392 16.5884 34.3546 16.5846 34.7889C16.5808 35.2231 16.7478 35.6415 17.0495 35.9539L26.987 45.8914C27.1393 46.0446 27.3205 46.1663 27.52 46.2493C27.7196 46.3323 27.9336 46.375 28.1497 46.375H28.1563C28.3716 46.375 28.5869 46.3319 28.789 46.2458C28.9898 46.1633 29.1722 46.0417 29.3256 45.8881L39.2631 35.9506C39.5648 35.6382 39.7317 35.2198 39.728 34.7856C39.7242 34.3513 39.55 33.9359 39.2429 33.6288C38.9358 33.3217 38.5204 33.1475 38.0862 33.1438C37.6519 33.14 37.2335 33.3069 36.9212 33.6086L29.8125 40.7206V8.28125C29.8125 7.84199 29.638 7.42071 29.3274 7.1101C29.0168 6.7995 28.5956 6.625 28.1563 6.625Z" fill="#FC382F"/>
</svg>
