<svg width="51" height="51" viewBox="0 0 51 51" fill="none" xmlns="http://www.w3.org/2000/svg">
<circle cx="25.5" cy="25.5" r="25.5" fill="#40B381"/>
<path d="M24.5814 16.3116L27.7973 13.0956C28.4609 12.4315 29.2488 11.9046 30.116 11.545C30.9832 11.1854 31.9128 11.0002 32.8516 11C33.7905 10.9998 34.7201 11.1845 35.5875 11.5437C36.4549 11.9029 37.2431 12.4294 37.9069 13.0933C38.5708 13.7571 39.0973 14.5453 39.4565 15.4127C39.8157 16.2801 40.0004 17.2097 40.0002 18.1486C40 19.0874 39.8148 20.017 39.4552 20.8842C39.0956 21.7514 38.5687 22.5393 37.9046 23.2029L33.3104 27.7971C32.6467 28.4607 31.8588 28.9872 30.9917 29.3463C30.1246 29.7055 29.1953 29.8903 28.2567 29.8903C27.3182 29.8903 26.3888 29.7055 25.5217 29.3463C24.6546 28.9872 23.8668 28.4607 23.2031 27.7971" stroke="white" stroke-width="5" stroke-linecap="round" stroke-linejoin="round"/>
<path d="M26.4188 34.6884L23.2029 37.9043C22.5393 38.5685 21.7514 39.0954 20.8842 39.455C20.017 39.8145 19.0874 39.9997 18.1486 40C17.2097 40.0002 16.2801 39.8154 15.4127 39.4562C14.5453 39.0971 13.7571 38.5705 13.0933 37.9067C12.4294 37.2428 11.9029 36.4547 11.5437 35.5873C11.1845 34.7199 10.9998 33.7902 11 32.8514C11.0002 31.9126 11.1854 30.983 11.545 30.1158C11.9046 29.2485 12.4315 28.4606 13.0956 27.7971L17.6898 23.2029C18.3535 22.5392 19.1413 22.0128 20.0085 21.6536C20.8756 21.2945 21.8049 21.1096 22.7435 21.1096C23.682 21.1096 24.6113 21.2945 25.4784 21.6536C26.3456 22.0128 27.1334 22.5392 27.7971 23.2029" stroke="white" stroke-width="5" stroke-linecap="round" stroke-linejoin="round"/>
</svg>
