<svg width="47" height="39" viewBox="0 0 47 39" fill="none" xmlns="http://www.w3.org/2000/svg">
<path d="M22.5568 28.5857C25.3526 29.8061 31.3103 33.3973 32.7757 37.9997H35.0412C34.6395 36.0028 33.7301 31.9519 33.3059 31.7237C37.8851 33.4353 49.9164 27.226 31.7152 15.5109M22.5568 28.5857C16.9654 30.6397 12.9003 27.1277 11.5667 25.115M22.5568 28.5857C24.2322 28.1537 26.2349 26.9983 28.3411 25.4494M31.7152 25.115C39.2991 26.7473 52.1048 26.3131 42.6572 11.5171M42.6572 11.5171C39.6695 7.21636 33.818 2.10734 26.172 1.18172M42.6572 11.5171C39.6199 15.137 33.6517 21.544 28.3411 25.4494M42.6572 11.5171C27.9915 8.59557 19.1157 14.1647 14.6506 19.7424M11.5667 25.115C1.30927 26.7885 0.239152 17.6028 1.34783 13.1336C2.84208 10.7564 4.72197 9.28246 6.65008 8.04943M11.5667 25.115C12.1183 23.5473 13.128 21.6443 14.6506 19.7424M6.65008 8.04943C13.0128 1.53261 20.5053 0.495705 26.172 1.18172M6.65008 8.04943C14.3464 7.27293 29.4594 9.66582 28.3411 25.4494M6.65008 8.04943C6.3923 12.375 7.63151 20.7693 14.6506 19.7424M26.172 1.18172C28.8231 6.51391 32.9685 18.8325 28.3411 25.4494M26.172 1.18172C22.4115 3.64424 14.8426 10.8039 14.6506 19.7424" stroke="white" stroke-width="2" stroke-linecap="round"/>
</svg>
