<svg width="34" height="44" viewBox="0 0 34 44" fill="none" xmlns="http://www.w3.org/2000/svg">
<path d="M3.4 0.000107051C1.53 0.000107051 0 1.52318 0 3.38471V40.6154C0 42.4769 1.53 44 3.4 44H30.6C32.47 44 34 42.4769 34 40.6154V9.30778C34 9.30326 34 9.29875 34 9.29424C34 9.28973 34 9.28521 34 9.2807C33.9995 9.26092 33.9984 9.24117 33.9966 9.22147C33.9956 9.21299 33.9944 9.20453 33.9932 9.19608C33.9797 9.0829 33.9434 8.97358 33.8864 8.87471C33.8295 8.77584 33.753 8.68944 33.6617 8.6207L25.3572 0.355491C25.3527 0.349792 25.3482 0.344151 25.3436 0.338568C25.263 0.231629 25.1582 0.145205 25.0376 0.0863744C24.9171 0.027544 24.7842 -0.00201879 24.65 0.000107051H3.4ZM3.4 1.69241H23.8V6.76932C23.8 8.63086 25.33 10.1539 27.2 10.1539H32.3V40.6154C32.3 41.5682 31.5571 42.3077 30.6 42.3077H3.4C2.4429 42.3077 1.7 41.5682 1.7 40.6154V3.38471C1.7 2.43195 2.4429 1.69241 3.4 1.69241ZM25.5 2.88887L31.0981 8.46163H27.2C26.2429 8.46163 25.5 7.72209 25.5 6.76932V2.88887ZM7.64999 15.2308C7.42456 15.2308 7.20836 15.32 7.04895 15.4787C6.88955 15.6374 6.79999 15.8526 6.79999 16.077V31.3077C6.79999 31.5321 6.88955 31.7474 7.04895 31.906C7.20836 32.0647 7.42456 32.1539 7.64999 32.1539H16.8011C16.9307 32.1847 17.0658 32.1847 17.1955 32.1539H26.35C26.5754 32.1539 26.7916 32.0647 26.951 31.906C27.1104 31.7474 27.2 31.5321 27.2 31.3077V16.077C27.2 15.8526 27.1104 15.6374 26.951 15.4787C26.7916 15.32 26.5754 15.2308 26.35 15.2308H7.64999ZM8.49999 16.9231H16.15V20.3077H8.49999V16.9231ZM17.85 16.9231H25.5V20.3077H17.85V16.9231ZM8.49999 22.0001H16.15V25.3847H8.49999V22.0001ZM17.85 22.0001H25.5V25.3847H17.85V22.0001ZM8.49999 27.077H16.15V30.4616H8.49999V27.077ZM17.85 27.077H25.5V30.4616H17.85V27.077Z" fill="#2C5DCF"/>
</svg>
