<svg width="31" height="31" viewBox="0 0 31 31" fill="none" xmlns="http://www.w3.org/2000/svg">
<path d="M22.4675 6.08442V4.38961C22.4675 2.51757 20.95 1 19.0779 1H8.03536C7.33733 1 6.66781 1.27682 6.1736 1.76974L2.83182 5.1029L1.69088 6.35043C1.24646 6.83638 1 7.47111 1 8.12963V26.2338C1 28.1058 2.51757 29.6234 4.38961 29.6234H19.0779C20.95 29.6234 22.4675 28.1058 22.4675 26.2338V15.8766" stroke="white" stroke-width="2"/>
<path d="M7.4026 1.37659V6.64932C7.4026 7.27334 6.89676 7.77919 6.27273 7.77919H1" stroke="white" stroke-width="2"/>
<path d="M5.896 13.8053H11.922M5.896 18.3248H17.1947M5.896 22.8443H8.04719M11.7337 22.8443H17.5713" stroke="white" stroke-width="2" stroke-linecap="round"/>
<path d="M24.0207 15.4052C26.5426 13.9492 27.4067 10.7244 25.9506 8.20252C24.4946 5.68062 21.2699 4.81655 18.748 6.27257C16.226 7.7286 15.362 10.9533 16.818 13.4753C18.274 15.9972 21.4988 16.8612 24.0207 15.4052Z" stroke="white" stroke-width="2"/>
<path d="M24.021 15.4054L30.0001 26.2339" stroke="white" stroke-width="2" stroke-linecap="round"/>
<path d="M19.4546 11.2955L20.3537 12.1671C20.6459 12.4504 21.1102 12.4504 21.4023 12.1671L23.5974 10.0391" stroke="white" stroke-width="2" stroke-linecap="round" stroke-linejoin="round"/>
</svg>
