<svg width="60" height="60" viewBox="0 0 60 60" fill="none" xmlns="http://www.w3.org/2000/svg">
<path d="M29.5 50C29.9365 50 30.3552 49.8244 30.6639 49.5118C30.9726 49.1993 31.146 48.7754 31.146 48.3333V15.69L38.2105 22.8433C38.521 23.1469 38.9368 23.3149 39.3683 23.3111C39.7999 23.3073 40.2127 23.132 40.5179 22.823C40.8231 22.514 40.9962 22.096 40.9999 21.659C41.0037 21.222 40.8378 20.801 40.538 20.4867L30.6621 10.4867C30.5106 10.3324 30.3306 10.2101 30.1323 10.1265C29.934 10.043 29.7214 10 29.5066 10H29.5C29.286 10 29.072 10.0433 28.8712 10.13C28.6717 10.2131 28.4904 10.3354 28.3379 10.49L18.462 20.49C18.1622 20.8043 17.9963 21.2253 18.0001 21.6623C18.0038 22.0993 18.1769 22.5174 18.4821 22.8264C18.7873 23.1354 19.2001 23.3107 19.6317 23.3145C20.0633 23.3183 20.479 23.1503 20.7895 22.8467L27.854 15.69V48.3333C27.854 48.7754 28.0274 49.1993 28.3361 49.5118C28.6448 49.8244 29.0635 50 29.5 50Z" fill="#2FB27D"/>
</svg>
